<svg xmlns="http://www.w3.org/2000/svg" width="1760" height="2720" viewBox="0 0 1760 2720"><rect width="1760" height="2720" fill="#101012"/><text x="50" y="100" fill="#8A8A90" font-family="monospace" font-size="23">1  WEDGE + copper delta in the void</text><path d="M65.000 190.000 L154.700 420.000 L205.300 420.000 L295.000 190.000 L246.700 190.000 L180.000 392.400 L113.300 190.000 Z" fill="#F2F0EB"/><path d="M121.350 198.050 L180.000 382.740 L238.650 198.050 Z" fill="#C4622D"/><text x="50" y="466" fill="#5A5A60" font-family="monospace" font-size="18">230 px</text><path d="M434.000 388.000 L446.480 420.000 L453.520 420.000 L466.000 388.000 L459.280 388.000 L450.000 416.160 L440.720 388.000 Z" fill="#F2F0EB"/><path d="M441.840 389.120 L450.000 414.816 L458.160 389.120 Z" fill="#C4622D"/><text x="420" y="466" fill="#5A5A60" font-family="monospace" font-size="18">32 px</text><path d="M640.000 247.270 L707.365 420.000 L745.365 420.000 L812.730 247.270 L776.457 247.270 L726.365 399.272 L676.273 247.270 Z" fill="#F2F0EB"/><path d="M682.319 253.315 L726.365 392.018 L770.411 253.315 Z" fill="#C4622D"/><g transform="translate(895.34 420) skewX(-12)" fill="#F2F0EB" fill-rule="nonzero"><path transform="translate(0 0)" d="M95.310 -158.100 L70.200 0.000 L25.200 0.000 L-1.080 -158.100 L37.980 -158.100 L47.115 -18.000 L56.250 -158.100 Z"/><path d="M193.7002685546875 -150.2001953125V-49.8193359375Q193.7002685546875 -32.7490234375 192.6983154296875 -25.83740234375Q191.6963623046875 -18.92578125 186.7700927734375 -11.64306640625Q181.8438232421875 -4.3603515625 173.7864501953125 -0.60302734375Q165.7290771484375 3.154296875 154.7910888671875 3.154296875Q142.6841552734375 3.154296875 133.4160888671875 -1.298828125Q124.1480224609375 -5.751953125 119.5557373046875 -12.8955078125Q114.9634521484375 -20.0390625 114.1284912109375 -27.97119140625Q113.2935302734375 -35.9033203125 113.2935302734375 -61.3232421875V-150.2001953125H148.4453857421875V-37.5732421875Q148.4453857421875 -27.7392578125 149.4055908203125 -25.00244140625Q150.3657958984375 -22.265625 153.2881591796875 -22.265625Q156.6280029296875 -22.265625 157.5882080078125 -25.28076171875Q158.5484130859375 -28.2958984375 158.5484130859375 -39.521484375V-150.2001953125Z"/><path d="M259.735009765625 -150.2001953125V-30.05859375H281.110009765625V0.0H224.583154296875V-150.2001953125Z"/><path d="M388.9762939453125 -84.7021484375H353.8244384765625V-110.8642578125Q353.8244384765625 -122.275390625 352.6972412109375 -125.10498046875Q351.5700439453125 -127.9345703125 347.7292236328125 -127.9345703125Q343.3874267578125 -127.9345703125 342.2184814453125 -124.501953125Q341.0495361328125 -121.0693359375 341.0495361328125 -109.658203125V-39.892578125Q341.0495361328125 -28.9453125 342.2184814453125 -25.60546875Q343.3874267578125 -22.265625 347.4787353515625 -22.265625Q351.4030517578125 -22.265625 352.6137451171875 -25.60546875Q353.8244384765625 -28.9453125 353.8244384765625 -41.2841796875V-60.1171875H388.9762939453125V-54.2724609375Q388.9762939453125 -30.986328125 386.0121826171875 -21.2451171875Q383.0480712890625 -11.50390625 372.9032958984375 -4.1748046875Q362.7585205078125 3.154296875 347.8962158203125 3.154296875Q332.4494384765625 3.154296875 322.4299072265625 -3.0615234375Q312.4103759765625 -9.27734375 309.1540283203125 -20.27099609375Q305.8976806640625 -31.2646484375 305.8976806640625 -53.3447265625V-97.2265625Q305.8976806640625 -113.4619140625 306.8996337890625 -121.57958984375Q307.9015869140625 -129.697265625 312.8696044921875 -137.2119140625Q317.8376220703125 -144.7265625 326.6464599609375 -149.04052734375Q335.4552978515625 -153.3544921875 346.8942626953125 -153.3544921875Q362.4245361328125 -153.3544921875 372.5275634765625 -146.6748046875Q382.6305908203125 -139.9951171875 385.8034423828125 -130.02197265625Q388.9762939453125 -120.048828125 388.9762939453125 -98.9892578125Z"/><path d="M479.55888671875 -150.2001953125 499.6814453125 0.0H463.69462890625L461.9412109375 -26.9970703125H449.33330078125L447.2458984375 0.0H410.8416015625L428.709765625 -150.2001953125ZM460.9392578125 -53.623046875Q458.2673828125 -79.1357421875 455.5955078125 -116.6162109375Q450.2517578125 -73.5693359375 448.9158203125 -53.623046875Z"/><path d="M601.4525146484375 -150.2001953125V0.0H570.6424560546875L552.3568115234375 -68.28125V0.0H522.9661865234375V-150.2001953125H552.3568115234375L572.0618896484375 -82.568359375V-150.2001953125Z"/></g><text x="640" y="466" fill="#5A5A60" font-family="monospace" font-size="18">lockup 1:1</text><line x1="40" y1="128" x2="1720" y2="128" stroke="#1C1C20"/><text x="50" y="530" fill="#8A8A90" font-family="monospace" font-size="23">2  WEDGE on a copper plinth</text><path d="M65.000 620.000 L154.700 850.000 L205.300 850.000 L295.000 620.000 L246.700 620.000 L180.000 822.400 L113.300 620.000 Z" fill="#F2F0EB"/><path d="M111.000 620.000 L249.000 620.000 L249.000 633.800 L111.000 633.800 Z" fill="#C4622D"/><text x="50" y="896" fill="#5A5A60" font-family="monospace" font-size="18">230 px</text><path d="M434.000 818.000 L446.480 850.000 L453.520 850.000 L466.000 818.000 L459.280 818.000 L450.000 846.160 L440.720 818.000 Z" fill="#F2F0EB"/><path d="M440.400 818.000 L459.600 818.000 L459.600 819.920 L440.400 819.920 Z" fill="#C4622D"/><text x="420" y="896" fill="#5A5A60" font-family="monospace" font-size="18">32 px</text><path d="M640.000 677.270 L707.365 850.000 L745.365 850.000 L812.730 677.270 L776.457 677.270 L726.365 829.272 L676.273 677.270 Z" fill="#F2F0EB"/><path d="M674.546 677.270 L778.184 677.270 L778.184 687.634 L674.546 687.634 Z" fill="#C4622D"/><g transform="translate(895.34 850) skewX(-12)" fill="#F2F0EB" fill-rule="nonzero"><path transform="translate(0 0)" d="M95.310 -158.100 L70.200 0.000 L25.200 0.000 L-1.080 -158.100 L37.980 -158.100 L47.115 -18.000 L56.250 -158.100 Z"/><path d="M193.7002685546875 -150.2001953125V-49.8193359375Q193.7002685546875 -32.7490234375 192.6983154296875 -25.83740234375Q191.6963623046875 -18.92578125 186.7700927734375 -11.64306640625Q181.8438232421875 -4.3603515625 173.7864501953125 -0.60302734375Q165.7290771484375 3.154296875 154.7910888671875 3.154296875Q142.6841552734375 3.154296875 133.4160888671875 -1.298828125Q124.1480224609375 -5.751953125 119.5557373046875 -12.8955078125Q114.9634521484375 -20.0390625 114.1284912109375 -27.97119140625Q113.2935302734375 -35.9033203125 113.2935302734375 -61.3232421875V-150.2001953125H148.4453857421875V-37.5732421875Q148.4453857421875 -27.7392578125 149.4055908203125 -25.00244140625Q150.3657958984375 -22.265625 153.2881591796875 -22.265625Q156.6280029296875 -22.265625 157.5882080078125 -25.28076171875Q158.5484130859375 -28.2958984375 158.5484130859375 -39.521484375V-150.2001953125Z"/><path d="M259.735009765625 -150.2001953125V-30.05859375H281.110009765625V0.0H224.583154296875V-150.2001953125Z"/><path d="M388.9762939453125 -84.7021484375H353.8244384765625V-110.8642578125Q353.8244384765625 -122.275390625 352.6972412109375 -125.10498046875Q351.5700439453125 -127.9345703125 347.7292236328125 -127.9345703125Q343.3874267578125 -127.9345703125 342.2184814453125 -124.501953125Q341.0495361328125 -121.0693359375 341.0495361328125 -109.658203125V-39.892578125Q341.0495361328125 -28.9453125 342.2184814453125 -25.60546875Q343.3874267578125 -22.265625 347.4787353515625 -22.265625Q351.4030517578125 -22.265625 352.6137451171875 -25.60546875Q353.8244384765625 -28.9453125 353.8244384765625 -41.2841796875V-60.1171875H388.9762939453125V-54.2724609375Q388.9762939453125 -30.986328125 386.0121826171875 -21.2451171875Q383.0480712890625 -11.50390625 372.9032958984375 -4.1748046875Q362.7585205078125 3.154296875 347.8962158203125 3.154296875Q332.4494384765625 3.154296875 322.4299072265625 -3.0615234375Q312.4103759765625 -9.27734375 309.1540283203125 -20.27099609375Q305.8976806640625 -31.2646484375 305.8976806640625 -53.3447265625V-97.2265625Q305.8976806640625 -113.4619140625 306.8996337890625 -121.57958984375Q307.9015869140625 -129.697265625 312.8696044921875 -137.2119140625Q317.8376220703125 -144.7265625 326.6464599609375 -149.04052734375Q335.4552978515625 -153.3544921875 346.8942626953125 -153.3544921875Q362.4245361328125 -153.3544921875 372.5275634765625 -146.6748046875Q382.6305908203125 -139.9951171875 385.8034423828125 -130.02197265625Q388.9762939453125 -120.048828125 388.9762939453125 -98.9892578125Z"/><path d="M479.55888671875 -150.2001953125 499.6814453125 0.0H463.69462890625L461.9412109375 -26.9970703125H449.33330078125L447.2458984375 0.0H410.8416015625L428.709765625 -150.2001953125ZM460.9392578125 -53.623046875Q458.2673828125 -79.1357421875 455.5955078125 -116.6162109375Q450.2517578125 -73.5693359375 448.9158203125 -53.623046875Z"/><path d="M601.4525146484375 -150.2001953125V0.0H570.6424560546875L552.3568115234375 -68.28125V0.0H522.9661865234375V-150.2001953125H552.3568115234375L572.0618896484375 -82.568359375V-150.2001953125Z"/></g><text x="640" y="896" fill="#5A5A60" font-family="monospace" font-size="18">lockup 1:1</text><line x1="40" y1="558" x2="1720" y2="558" stroke="#1C1C20"/><text x="50" y="960" fill="#8A8A90" font-family="monospace" font-size="23">3  SLIP: upper section translated up-right, in copper</text><path d="M98.741 1160.660 L138.404 1160.660 L169.151 1253.962 L199.898 1160.660 L239.561 1160.660 L193.019 1280.000 L145.283 1280.000 Z" fill="#F2F0EB"/><path d="M71.509 1050.000 L109.590 1147.642 L149.253 1147.642 L117.075 1050.000 Z" fill="#C4622D"/><path d="M288.491 1050.000 L250.410 1147.642 L210.747 1147.642 L242.925 1050.000 Z" fill="#C4622D"/><text x="50" y="1326" fill="#5A5A60" font-family="monospace" font-size="18">230 px</text><path d="M438.694 1263.396 L444.213 1263.396 L448.491 1276.377 L452.768 1263.396 L458.287 1263.396 L451.811 1280.000 L445.170 1280.000 Z" fill="#F2F0EB"/><path d="M434.906 1248.000 L440.204 1261.585 L445.722 1261.585 L441.245 1248.000 Z" fill="#C4622D"/><path d="M465.094 1248.000 L459.796 1261.585 L454.278 1261.585 L458.755 1248.000 Z" fill="#C4622D"/><text x="420" y="1326" fill="#5A5A60" font-family="monospace" font-size="18">32 px</text><path d="M665.339 1190.376 L695.126 1190.376 L718.217 1260.446 L741.309 1190.376 L771.096 1190.376 L736.142 1280.000 L700.293 1280.000 Z" fill="#F2F0EB"/><path d="M644.889 1107.270 L673.487 1180.599 L703.274 1180.599 L679.109 1107.270 Z" fill="#C4622D"/><path d="M807.842 1107.270 L779.243 1180.599 L749.456 1180.599 L773.621 1107.270 Z" fill="#C4622D"/><g transform="translate(895.34 1280) skewX(-12)" fill="#F2F0EB" fill-rule="nonzero"><path transform="translate(0 0)" d="M95.310 -158.100 L70.200 0.000 L25.200 0.000 L-1.080 -158.100 L37.980 -158.100 L47.115 -18.000 L56.250 -158.100 Z"/><path d="M193.7002685546875 -150.2001953125V-49.8193359375Q193.7002685546875 -32.7490234375 192.6983154296875 -25.83740234375Q191.6963623046875 -18.92578125 186.7700927734375 -11.64306640625Q181.8438232421875 -4.3603515625 173.7864501953125 -0.60302734375Q165.7290771484375 3.154296875 154.7910888671875 3.154296875Q142.6841552734375 3.154296875 133.4160888671875 -1.298828125Q124.1480224609375 -5.751953125 119.5557373046875 -12.8955078125Q114.9634521484375 -20.0390625 114.1284912109375 -27.97119140625Q113.2935302734375 -35.9033203125 113.2935302734375 -61.3232421875V-150.2001953125H148.4453857421875V-37.5732421875Q148.4453857421875 -27.7392578125 149.4055908203125 -25.00244140625Q150.3657958984375 -22.265625 153.2881591796875 -22.265625Q156.6280029296875 -22.265625 157.5882080078125 -25.28076171875Q158.5484130859375 -28.2958984375 158.5484130859375 -39.521484375V-150.2001953125Z"/><path d="M259.735009765625 -150.2001953125V-30.05859375H281.110009765625V0.0H224.583154296875V-150.2001953125Z"/><path d="M388.9762939453125 -84.7021484375H353.8244384765625V-110.8642578125Q353.8244384765625 -122.275390625 352.6972412109375 -125.10498046875Q351.5700439453125 -127.9345703125 347.7292236328125 -127.9345703125Q343.3874267578125 -127.9345703125 342.2184814453125 -124.501953125Q341.0495361328125 -121.0693359375 341.0495361328125 -109.658203125V-39.892578125Q341.0495361328125 -28.9453125 342.2184814453125 -25.60546875Q343.3874267578125 -22.265625 347.4787353515625 -22.265625Q351.4030517578125 -22.265625 352.6137451171875 -25.60546875Q353.8244384765625 -28.9453125 353.8244384765625 -41.2841796875V-60.1171875H388.9762939453125V-54.2724609375Q388.9762939453125 -30.986328125 386.0121826171875 -21.2451171875Q383.0480712890625 -11.50390625 372.9032958984375 -4.1748046875Q362.7585205078125 3.154296875 347.8962158203125 3.154296875Q332.4494384765625 3.154296875 322.4299072265625 -3.0615234375Q312.4103759765625 -9.27734375 309.1540283203125 -20.27099609375Q305.8976806640625 -31.2646484375 305.8976806640625 -53.3447265625V-97.2265625Q305.8976806640625 -113.4619140625 306.8996337890625 -121.57958984375Q307.9015869140625 -129.697265625 312.8696044921875 -137.2119140625Q317.8376220703125 -144.7265625 326.6464599609375 -149.04052734375Q335.4552978515625 -153.3544921875 346.8942626953125 -153.3544921875Q362.4245361328125 -153.3544921875 372.5275634765625 -146.6748046875Q382.6305908203125 -139.9951171875 385.8034423828125 -130.02197265625Q388.9762939453125 -120.048828125 388.9762939453125 -98.9892578125Z"/><path d="M479.55888671875 -150.2001953125 499.6814453125 0.0H463.69462890625L461.9412109375 -26.9970703125H449.33330078125L447.2458984375 0.0H410.8416015625L428.709765625 -150.2001953125ZM460.9392578125 -53.623046875Q458.2673828125 -79.1357421875 455.5955078125 -116.6162109375Q450.2517578125 -73.5693359375 448.9158203125 -53.623046875Z"/><path d="M601.4525146484375 -150.2001953125V0.0H570.6424560546875L552.3568115234375 -68.28125V0.0H522.9661865234375V-150.2001953125H552.3568115234375L572.0618896484375 -82.568359375V-150.2001953125Z"/></g><text x="640" y="1326" fill="#5A5A60" font-family="monospace" font-size="18">lockup 1:1</text><line x1="40" y1="988" x2="1720" y2="988" stroke="#1C1C20"/><text x="50" y="1390" fill="#8A8A90" font-family="monospace" font-size="23">4  INVERSION: plate with a V bitten out of its top edge</text><path d="M65.000 1480.000 L295.000 1480.000 L295.000 1710.000 L65.000 1710.000 Z M90.300 1480.000 L180.000 1650.200 L269.700 1480.000 Z" fill="#F2F0EB" fill-rule="evenodd"/><text x="50" y="1756" fill="#5A5A60" font-family="monospace" font-size="18">230 px</text><path d="M434.000 1678.000 L466.000 1678.000 L466.000 1710.000 L434.000 1710.000 Z M437.520 1678.000 L450.000 1701.680 L462.480 1678.000 Z" fill="#F2F0EB" fill-rule="evenodd"/><text x="420" y="1756" fill="#5A5A60" font-family="monospace" font-size="18">32 px</text><path d="M640.000 1537.270 L812.730 1537.270 L812.730 1710.000 L640.000 1710.000 Z M659.000 1537.270 L726.365 1665.090 L793.730 1537.270 Z" fill="#F2F0EB" fill-rule="evenodd"/><g transform="translate(895.34 1710) skewX(-12)" fill="#F2F0EB" fill-rule="nonzero"><path transform="translate(0 0)" d="M95.310 -158.100 L70.200 0.000 L25.200 0.000 L-1.080 -158.100 L37.980 -158.100 L47.115 -18.000 L56.250 -158.100 Z"/><path d="M193.7002685546875 -150.2001953125V-49.8193359375Q193.7002685546875 -32.7490234375 192.6983154296875 -25.83740234375Q191.6963623046875 -18.92578125 186.7700927734375 -11.64306640625Q181.8438232421875 -4.3603515625 173.7864501953125 -0.60302734375Q165.7290771484375 3.154296875 154.7910888671875 3.154296875Q142.6841552734375 3.154296875 133.4160888671875 -1.298828125Q124.1480224609375 -5.751953125 119.5557373046875 -12.8955078125Q114.9634521484375 -20.0390625 114.1284912109375 -27.97119140625Q113.2935302734375 -35.9033203125 113.2935302734375 -61.3232421875V-150.2001953125H148.4453857421875V-37.5732421875Q148.4453857421875 -27.7392578125 149.4055908203125 -25.00244140625Q150.3657958984375 -22.265625 153.2881591796875 -22.265625Q156.6280029296875 -22.265625 157.5882080078125 -25.28076171875Q158.5484130859375 -28.2958984375 158.5484130859375 -39.521484375V-150.2001953125Z"/><path d="M259.735009765625 -150.2001953125V-30.05859375H281.110009765625V0.0H224.583154296875V-150.2001953125Z"/><path d="M388.9762939453125 -84.7021484375H353.8244384765625V-110.8642578125Q353.8244384765625 -122.275390625 352.6972412109375 -125.10498046875Q351.5700439453125 -127.9345703125 347.7292236328125 -127.9345703125Q343.3874267578125 -127.9345703125 342.2184814453125 -124.501953125Q341.0495361328125 -121.0693359375 341.0495361328125 -109.658203125V-39.892578125Q341.0495361328125 -28.9453125 342.2184814453125 -25.60546875Q343.3874267578125 -22.265625 347.4787353515625 -22.265625Q351.4030517578125 -22.265625 352.6137451171875 -25.60546875Q353.8244384765625 -28.9453125 353.8244384765625 -41.2841796875V-60.1171875H388.9762939453125V-54.2724609375Q388.9762939453125 -30.986328125 386.0121826171875 -21.2451171875Q383.0480712890625 -11.50390625 372.9032958984375 -4.1748046875Q362.7585205078125 3.154296875 347.8962158203125 3.154296875Q332.4494384765625 3.154296875 322.4299072265625 -3.0615234375Q312.4103759765625 -9.27734375 309.1540283203125 -20.27099609375Q305.8976806640625 -31.2646484375 305.8976806640625 -53.3447265625V-97.2265625Q305.8976806640625 -113.4619140625 306.8996337890625 -121.57958984375Q307.9015869140625 -129.697265625 312.8696044921875 -137.2119140625Q317.8376220703125 -144.7265625 326.6464599609375 -149.04052734375Q335.4552978515625 -153.3544921875 346.8942626953125 -153.3544921875Q362.4245361328125 -153.3544921875 372.5275634765625 -146.6748046875Q382.6305908203125 -139.9951171875 385.8034423828125 -130.02197265625Q388.9762939453125 -120.048828125 388.9762939453125 -98.9892578125Z"/><path d="M479.55888671875 -150.2001953125 499.6814453125 0.0H463.69462890625L461.9412109375 -26.9970703125H449.33330078125L447.2458984375 0.0H410.8416015625L428.709765625 -150.2001953125ZM460.9392578125 -53.623046875Q458.2673828125 -79.1357421875 455.5955078125 -116.6162109375Q450.2517578125 -73.5693359375 448.9158203125 -53.623046875Z"/><path d="M601.4525146484375 -150.2001953125V0.0H570.6424560546875L552.3568115234375 -68.28125V0.0H522.9661865234375V-150.2001953125H552.3568115234375L572.0618896484375 -82.568359375V-150.2001953125Z"/></g><text x="640" y="1756" fill="#5A5A60" font-family="monospace" font-size="18">lockup 1:1</text><line x1="40" y1="1418" x2="1720" y2="1418" stroke="#1C1C20"/><text x="50" y="1820" fill="#8A8A90" font-family="monospace" font-size="23">5  SLOT CLOSED: a V-shaped hole inside the plate</text><path d="M65.000 1910.000 L295.000 1910.000 L295.000 2140.000 L65.000 2140.000 Z M85.700 1933.000 L180.000 2094.000 L274.300 1933.000 L223.700 1991.190 L180.000 2025.690 L136.300 1991.190 Z" fill="#F2F0EB" fill-rule="evenodd"/><text x="50" y="2186" fill="#5A5A60" font-family="monospace" font-size="18">230 px</text><path d="M434.000 2108.000 L466.000 2108.000 L466.000 2140.000 L434.000 2140.000 Z M436.880 2111.200 L450.000 2133.600 L463.120 2111.200 L456.080 2119.296 L450.000 2124.096 L443.920 2119.296 Z" fill="#F2F0EB" fill-rule="evenodd"/><text x="420" y="2186" fill="#5A5A60" font-family="monospace" font-size="18">32 px</text><path d="M640.000 1967.270 L812.730 1967.270 L812.730 2140.000 L640.000 2140.000 Z M655.546 1984.543 L726.365 2105.454 L797.185 1984.543 L759.184 2028.244 L726.365 2054.153 L693.546 2028.244 Z" fill="#F2F0EB" fill-rule="evenodd"/><g transform="translate(895.34 2140) skewX(-12)" fill="#F2F0EB" fill-rule="nonzero"><path transform="translate(0 0)" d="M95.310 -158.100 L70.200 0.000 L25.200 0.000 L-1.080 -158.100 L37.980 -158.100 L47.115 -18.000 L56.250 -158.100 Z"/><path d="M193.7002685546875 -150.2001953125V-49.8193359375Q193.7002685546875 -32.7490234375 192.6983154296875 -25.83740234375Q191.6963623046875 -18.92578125 186.7700927734375 -11.64306640625Q181.8438232421875 -4.3603515625 173.7864501953125 -0.60302734375Q165.7290771484375 3.154296875 154.7910888671875 3.154296875Q142.6841552734375 3.154296875 133.4160888671875 -1.298828125Q124.1480224609375 -5.751953125 119.5557373046875 -12.8955078125Q114.9634521484375 -20.0390625 114.1284912109375 -27.97119140625Q113.2935302734375 -35.9033203125 113.2935302734375 -61.3232421875V-150.2001953125H148.4453857421875V-37.5732421875Q148.4453857421875 -27.7392578125 149.4055908203125 -25.00244140625Q150.3657958984375 -22.265625 153.2881591796875 -22.265625Q156.6280029296875 -22.265625 157.5882080078125 -25.28076171875Q158.5484130859375 -28.2958984375 158.5484130859375 -39.521484375V-150.2001953125Z"/><path d="M259.735009765625 -150.2001953125V-30.05859375H281.110009765625V0.0H224.583154296875V-150.2001953125Z"/><path d="M388.9762939453125 -84.7021484375H353.8244384765625V-110.8642578125Q353.8244384765625 -122.275390625 352.6972412109375 -125.10498046875Q351.5700439453125 -127.9345703125 347.7292236328125 -127.9345703125Q343.3874267578125 -127.9345703125 342.2184814453125 -124.501953125Q341.0495361328125 -121.0693359375 341.0495361328125 -109.658203125V-39.892578125Q341.0495361328125 -28.9453125 342.2184814453125 -25.60546875Q343.3874267578125 -22.265625 347.4787353515625 -22.265625Q351.4030517578125 -22.265625 352.6137451171875 -25.60546875Q353.8244384765625 -28.9453125 353.8244384765625 -41.2841796875V-60.1171875H388.9762939453125V-54.2724609375Q388.9762939453125 -30.986328125 386.0121826171875 -21.2451171875Q383.0480712890625 -11.50390625 372.9032958984375 -4.1748046875Q362.7585205078125 3.154296875 347.8962158203125 3.154296875Q332.4494384765625 3.154296875 322.4299072265625 -3.0615234375Q312.4103759765625 -9.27734375 309.1540283203125 -20.27099609375Q305.8976806640625 -31.2646484375 305.8976806640625 -53.3447265625V-97.2265625Q305.8976806640625 -113.4619140625 306.8996337890625 -121.57958984375Q307.9015869140625 -129.697265625 312.8696044921875 -137.2119140625Q317.8376220703125 -144.7265625 326.6464599609375 -149.04052734375Q335.4552978515625 -153.3544921875 346.8942626953125 -153.3544921875Q362.4245361328125 -153.3544921875 372.5275634765625 -146.6748046875Q382.6305908203125 -139.9951171875 385.8034423828125 -130.02197265625Q388.9762939453125 -120.048828125 388.9762939453125 -98.9892578125Z"/><path d="M479.55888671875 -150.2001953125 499.6814453125 0.0H463.69462890625L461.9412109375 -26.9970703125H449.33330078125L447.2458984375 0.0H410.8416015625L428.709765625 -150.2001953125ZM460.9392578125 -53.623046875Q458.2673828125 -79.1357421875 455.5955078125 -116.6162109375Q450.2517578125 -73.5693359375 448.9158203125 -53.623046875Z"/><path d="M601.4525146484375 -150.2001953125V0.0H570.6424560546875L552.3568115234375 -68.28125V0.0H522.9661865234375V-150.2001953125H552.3568115234375L572.0618896484375 -82.568359375V-150.2001953125Z"/></g><text x="640" y="2186" fill="#5A5A60" font-family="monospace" font-size="18">lockup 1:1</text><line x1="40" y1="1848" x2="1720" y2="1848" stroke="#1C1C20"/><text x="50" y="2250" fill="#8A8A90" font-family="monospace" font-size="23">6  DELTA-V: a triangle with a V bitten out of its base</text><path d="M65.000 2570.000 L180.000 2340.000 L295.000 2570.000 L221.400 2570.000 L180.000 2450.400 L138.600 2570.000 Z" fill="#F2F0EB"/><text x="50" y="2616" fill="#5A5A60" font-family="monospace" font-size="18">230 px</text><path d="M434.000 2570.000 L450.000 2538.000 L466.000 2570.000 L455.760 2570.000 L450.000 2553.360 L444.240 2570.000 Z" fill="#F2F0EB"/><text x="420" y="2616" fill="#5A5A60" font-family="monospace" font-size="18">32 px</text><path d="M640.000 2570.000 L726.365 2397.270 L812.730 2570.000 L757.457 2570.000 L726.365 2480.180 L695.274 2570.000 Z" fill="#F2F0EB"/><g transform="translate(895.34 2570) skewX(-12)" fill="#F2F0EB" fill-rule="nonzero"><path transform="translate(0 0)" d="M95.310 -158.100 L70.200 0.000 L25.200 0.000 L-1.080 -158.100 L37.980 -158.100 L47.115 -18.000 L56.250 -158.100 Z"/><path d="M193.7002685546875 -150.2001953125V-49.8193359375Q193.7002685546875 -32.7490234375 192.6983154296875 -25.83740234375Q191.6963623046875 -18.92578125 186.7700927734375 -11.64306640625Q181.8438232421875 -4.3603515625 173.7864501953125 -0.60302734375Q165.7290771484375 3.154296875 154.7910888671875 3.154296875Q142.6841552734375 3.154296875 133.4160888671875 -1.298828125Q124.1480224609375 -5.751953125 119.5557373046875 -12.8955078125Q114.9634521484375 -20.0390625 114.1284912109375 -27.97119140625Q113.2935302734375 -35.9033203125 113.2935302734375 -61.3232421875V-150.2001953125H148.4453857421875V-37.5732421875Q148.4453857421875 -27.7392578125 149.4055908203125 -25.00244140625Q150.3657958984375 -22.265625 153.2881591796875 -22.265625Q156.6280029296875 -22.265625 157.5882080078125 -25.28076171875Q158.5484130859375 -28.2958984375 158.5484130859375 -39.521484375V-150.2001953125Z"/><path d="M259.735009765625 -150.2001953125V-30.05859375H281.110009765625V0.0H224.583154296875V-150.2001953125Z"/><path d="M388.9762939453125 -84.7021484375H353.8244384765625V-110.8642578125Q353.8244384765625 -122.275390625 352.6972412109375 -125.10498046875Q351.5700439453125 -127.9345703125 347.7292236328125 -127.9345703125Q343.3874267578125 -127.9345703125 342.2184814453125 -124.501953125Q341.0495361328125 -121.0693359375 341.0495361328125 -109.658203125V-39.892578125Q341.0495361328125 -28.9453125 342.2184814453125 -25.60546875Q343.3874267578125 -22.265625 347.4787353515625 -22.265625Q351.4030517578125 -22.265625 352.6137451171875 -25.60546875Q353.8244384765625 -28.9453125 353.8244384765625 -41.2841796875V-60.1171875H388.9762939453125V-54.2724609375Q388.9762939453125 -30.986328125 386.0121826171875 -21.2451171875Q383.0480712890625 -11.50390625 372.9032958984375 -4.1748046875Q362.7585205078125 3.154296875 347.8962158203125 3.154296875Q332.4494384765625 3.154296875 322.4299072265625 -3.0615234375Q312.4103759765625 -9.27734375 309.1540283203125 -20.27099609375Q305.8976806640625 -31.2646484375 305.8976806640625 -53.3447265625V-97.2265625Q305.8976806640625 -113.4619140625 306.8996337890625 -121.57958984375Q307.9015869140625 -129.697265625 312.8696044921875 -137.2119140625Q317.8376220703125 -144.7265625 326.6464599609375 -149.04052734375Q335.4552978515625 -153.3544921875 346.8942626953125 -153.3544921875Q362.4245361328125 -153.3544921875 372.5275634765625 -146.6748046875Q382.6305908203125 -139.9951171875 385.8034423828125 -130.02197265625Q388.9762939453125 -120.048828125 388.9762939453125 -98.9892578125Z"/><path d="M479.55888671875 -150.2001953125 499.6814453125 0.0H463.69462890625L461.9412109375 -26.9970703125H449.33330078125L447.2458984375 0.0H410.8416015625L428.709765625 -150.2001953125ZM460.9392578125 -53.623046875Q458.2673828125 -79.1357421875 455.5955078125 -116.6162109375Q450.2517578125 -73.5693359375 448.9158203125 -53.623046875Z"/><path d="M601.4525146484375 -150.2001953125V0.0H570.6424560546875L552.3568115234375 -68.28125V0.0H522.9661865234375V-150.2001953125H552.3568115234375L572.0618896484375 -82.568359375V-150.2001953125Z"/></g><text x="640" y="2616" fill="#5A5A60" font-family="monospace" font-size="18">lockup 1:1</text><line x1="40" y1="2278" x2="1720" y2="2278" stroke="#1C1C20"/></svg>